<svg id="Layer_1" data-name="Layer 1" xmlns="http://www.w3.org/2000/svg" viewBox="0 0 841.89 595.28"><defs><style>.cls-1{fill:#fff;}.cls-2{fill:#1d1d1b;}.cls-3{fill:none;}</style></defs><title>inesta</title><polygon class="cls-1" points="49.28 49.59 49.28 119.72 89.96 119.72 89.96 76.82 89.98 76.82 89.98 65.69 78.71 65.69 78.71 108.56 60.44 108.56 60.44 60.75 108.25 60.75 108.25 108.56 94.86 108.56 94.86 119.72 119.4 119.72 119.4 49.59 49.28 49.59"/><polygon points="605.18 358.16 571.2 358.16 571.2 560.39 551.7 560.39 551.7 358.16 517.51 358.16 517.51 340.86 605.18 340.86 605.18 358.16"/><path d="M495,544.81a15.53,15.53,0,0,1-4.27,11.24,14.93,14.93,0,0,1-11.17,4.34H424.39a15.44,15.44,0,0,1-11.3-4.34,15,15,0,0,1-4.41-11.24V489.12h19.43v54h47.43V490.77L415,417.58a25.41,25.41,0,0,1-6.27-16.68V356.44a15.16,15.16,0,0,1,4.41-11.24,15.44,15.44,0,0,1,11.3-4.34H479.6a14.93,14.93,0,0,1,11.17,4.34A15.66,15.66,0,0,1,495,356.44v51.07h-19.5V358.16H428.11v46.25L489,477.61A25,25,0,0,1,495,494Z"/><polygon points="379.11 560.39 307.01 560.39 307.01 340.86 378.21 340.86 378.21 358.16 326.52 358.16 326.52 440.05 373.59 440.05 373.59 457.55 326.52 457.55 326.51 543.09 379.11 543.09 379.11 560.39"/><polygon points="271.93 560.39 258.49 560.39 199.83 398.96 199.83 560.39 181.49 560.39 181.49 340.86 196.04 340.86 253.59 499.53 253.59 340.86 271.93 340.86 271.93 560.39"/><rect x="125.39" y="340.86" width="19.51" height="219.53"/><path d="M677.63,340.31H658.39L619.31,559.77v.62h18.75l7.72-48.87h43.63l7.72,48.87H716.5Zm-29.3,154,19.37-118.9,19.16,118.9Z"/><path class="cls-2" d="M314.14,34.89H527.75V248.5H314.14Zm26,26V222.51h93.76V123.64h0V98H408v98.81H365.85V86.6H476V196.79H445.2v25.72h56.56V60.88Z"/><rect class="cls-3" width="841.89" height="595.28"/></svg>